<?xml version="1.0" encoding="UTF-8"?>
<svg id="Layer_1" data-name="Layer 1" xmlns="http://www.w3.org/2000/svg" viewBox="0 0 661.52 197.82">
  <defs>
    <style>
      .cls-1 {
        fill: #3144a2;
      }

      .cls-2 {
        fill: #3044a2;
      }

      .cls-3 {
        fill: #3448a3;
      }

      .cls-4 {
        fill: #3044a1;
      }

      .cls-5 {
        fill: #2f43a1;
      }

      .cls-6 {
        fill: #3447a3;
      }

      .cls-7 {
        fill: #3145a2;
      }

      .cls-8 {
        fill: #3347a3;
      }

      .cls-9 {
        fill: #3245a2;
      }

      .cls-10 {
        fill: #3246a2;
      }
    </style>
  </defs>
  <path class="cls-4" d="m298.72,181.81c1.79-.5,3.03,1.66,1.79,3.04-1.33,1.47-2.63,2.76-3.05,3.09-17.5,13.59-50.31,13.21-65.99-1.56-5.48-5.16-8.49-15.02-9.01-22.97-1.27-19.24-.62-38.62-.31-57.94.12-7.14-2.61-12.05-10.17-13.75-6.02-1.36-5.85-5.25-8.34-10.48h64.35c.72,9.26-.49,12.02-12.1,13.94-2.17.36-3.77,2.25-3.77,4.45-.03,22.49-.27,45.1.16,67.7.16,8.49,7.48,13.41,17.46,13.46,12.62.07,20.05-5.11,20.72-16.11.81-13.28.37-26.63.43-39.96.04-9.58,0-19.16,0-29.56-10.58.52-18.29-1.16-13.93-13.93h104.63v13.16c-3.86.19-8.01.4-13.84.7v25.51c0,15.99-.01,31.99,0,47.98q.01,13.65,13.74,14.79v12.03h-59.03v-11.19q15.23-3.79,15.23-20.7c0-19.66-.22-39.32.12-58.97.12-7.04-1.59-10.21-9.45-9.93-23.36.83-19.43-3.33-20.02,20.22-.47,19.17-.93,38.36-2.2,57.49-.27,4.01-1.18,6.25-2.55,7.44-1.88,1.63-4.8.04-4.52-2.44,1.28-11.54,2.43-21.82,3.13-33.68.71-11.95.18-23.98.14-35.98-.03-9.29-1.18-19.2,12.09-20.57h-30.45c10.6,1.35,13.1,8.92,13.08,17.58-.05,19.61-.53,39.23-1.02,58.84-.41,16.08-11.67,23.52-27.97,23.31-11.25-.15-22.79-10.62-22.18-25.12.79-18.62.34-37.31.09-55.97-.13-9.54-.09-18.45,13.01-18.99h-43.59c10.42,2.68,12.71,9.3,12.5,18.85-.43,19.31-.58,38.68.5,57.94.35,6.24,3.84,13.07,7.79,18.17,8.43,10.88,34.7,15.83,54.04,4.65,5.84-2.72,3.99-3.28,8.51-4.55Zm35.63,5.26c-1.81.36-3.62.73-5.42,1.09l.37,2.53c3.06-.3,6.11-.59,9.17-.89h27.62c-1.61-6.75-3.77-11.82-3.86-16.92-.38-22.66,0-45.33-.25-67.99-.11-9.42.6-17.57,12.9-17.63h-45.44c10.96.32,14.09,7.55,14.21,16.52.29,22.66.37,45.33-.08,67.99-.12,6.25-.6,13.57-9.23,15.29Zm36.79.9l.15,2.64c1.15-.18,2.3-.35,3.45-.53-.08-.8-.16-1.59-.25-2.39-2.17.18-1.17.1-3.35.28Z"/>
  <path class="cls-1" d="m199.79,179.97l2.57.83c4.42,1.43,7.41,5.55,7.41,10.2h0c0,2.77-2.06,5.12-4.81,5.45-15.98,1.91-33.35-3.64-39.52-20.38-2.92-7.9-7.71-15.17-12.16-22.43-1.27-2.07-3.6-3.48-7.02-6.15-.9-.7-2.2-.06-2.2,1.07,0,8.17,0,13.79,0,19.41,0,13.26.26,13.96,12.49,15.4.66.08,1.17.62,1.2,1.29.13,2.74.26,5.59.42,8.87.04.78-.58,1.43-1.36,1.43h-53.67c-.75,0-1.36-.61-1.36-1.36v-10.13c0-.84.76-1.47,1.59-1.34,11.96,1.97,11.86-6.09,11.66-15.33-.45-19.97-.14-39.96-.14-59.94,0-3.2,0-6.39,0-10.13,0-.75-.6-1.36-1.35-1.37-9.2-.07-16.56-1.56-12.5-14.54.18-.58.74-.96,1.35-.94,22.96,1.01,46.73,1.19,70.27,3.6,10.99,1.13,21.22,7.25,23.39,20.32,2.95,17.78-1.57,27.83-17.15,37.76-.63.4-.83,1.22-.45,1.86,5.65,9.34,11.43,18.64,16.82,28.15.8,1.41.74,3.32.74,5.19,0,.94-.92,1.59-1.81,1.29-1.38-.48-2.75-.97-3.32-1.93-6.86-11.56-13.43-23.3-20.29-35.36-.38-.67-.13-1.52.55-1.88,1.47-.78,2.54-1.37,3.65-1.87,9.69-4.33,18.2-17.43,17.14-26.46-1.39-11.87-8.25-20.82-20.3-21.5-21.11-1.18-42.33-.33-63.51-.33,9.81-.06,13.06,6.18,13.06,15.1-.01,23.29.35,46.59-.34,69.86-.13,4.26-3.96,8.42-6.35,12.61-.23.4-.63.66-1.09.69-1.79.11-3.58.22-5.37.32-.77.05-1.35.73-1.27,1.5l.02.22c.08.74.74,1.28,1.48,1.21,1.86-.18,3.72-.36,5.59-.54.04,0,.09,0,.13,0,10.73,0,21.45,0,32.18,0h5.79c.78,0,1.4-.66,1.36-1.44v-.03c-.04-.72-.64-1.28-1.36-1.28h-5.27c-.46,0-.88-.23-1.13-.61-2.69-4.02-7.01-8-7.12-12.09-.42-15.64.88-31.32,1.22-46.99.25-11.46.07-22.93.05-34.25,0-.69.52-1.27,1.2-1.35,17.31-2.09,26.11.83,29.09,9.2,5.93,16.67.36,30.52-16.05,39.75-.65.37-.9,1.18-.54,1.84,6.18,11.24,12.23,22.54,18.59,33.67,6.9,12.08,17.91,16.86,29.25,13.65.89-.25,1.28-1.29.77-2.06-1.23-1.85-2.49-3.74-3.76-5.65-.71-1.07.33-2.45,1.55-2.05Zm-53.96-85.23c-.88-.29-1.78.37-1.78,1.29-.03,10.79-.34,19.15.18,27.45.21,3.34,1.89,6.59,3.15,9.86.26.69,1.03,1.03,1.72.78,5.26-1.92,12.84-3.23,13.65-6.31,2.17-8.31,2.44-18.09-.07-26.19-1.03-3.34-9.37-4.41-16.84-6.89Z"/>
  <path class="cls-2" d="m474.37,194.23v-9.85c0-.68.6-1.22,1.28-1.14,13,1.51,13.22-7.18,12.91-17.57-.6-20.31-.29-40.65-.1-60.98.06-6.14-.82-9.89-8.5-10.17-8.76-.32-5.38-6.92-5.75-12.15-.05-.64.43-1.21,1.07-1.24,2.71-.17,4.97-.36,7.23-.36,26.52-.03,53.04-.02,79.98-.02.64,0,1.15.52,1.15,1.15v30.98c0,.64-.52,1.15-1.15,1.15h-13.32c-.15-.2-.83-.7-.85-1.22q-.45-16.04-16.7-16.04c-3.62,0-7.25,0-11.37,0-.64,0-1.16.52-1.16,1.15v29.03c0,.64.52,1.15,1.15,1.15h32.26c.64,0,1.15.52,1.15,1.15v12.36c0,.64-.52,1.15-1.15,1.15h-32.11c-.64,0-1.15.52-1.15,1.15v35.71c0,.63.51,1.14,1.14,1.15,8.02.05,15.95.58,23.72-.34,2.92-.34,6.04-4.11,7.87-7.05,1.63-2.62,1.95-6.06,2.74-9.38.12-.52.59-.88,1.12-.88h12.46c.64,0,1.15.52,1.15,1.15v29.95c0,.64-.52,1.15-1.15,1.15h-92.79c-.64,0-1.15-.52-1.15-1.15Zm88.63-6.1v-17.56c0-1.16-1.55-1.6-2.14-.6-1.22,2.09-1.66,4.3-2.9,5.86-3.23,4.06-7.09,9.86-11.32,10.45-10.33,1.44-20.98.56-31.98.5-.63,0-1.14-.51-1.14-1.15v-47.18c0-.64.52-1.15,1.15-1.15h31.59c.68,0,1.21-.58,1.15-1.26l-.02-.22c-.06-.59-.56-1.05-1.15-1.04-8.96.03-17.94.39-26.85-.27-2.55-.19-6.85-3.57-6.96-5.66-.64-12.13-.34-24.31-.33-36.93,0-.64.52-1.15,1.16-1.15,9.72.01,18.34.16,26.94-.05,6.91-.17,11.53,1.57,12.17,9.64.21,2.63,2.06,5.13,3.52,7.66.38.66,1.28.78,1.81.24h.01c.21-.23.33-.52.33-.82v-19.51c0-.64-.52-1.15-1.15-1.15h-68.48c-1.19,0-1.59,1.56-.56,2.15,6.43,3.71,6.79,11.07,6.67,19.1-.3,20.33.33,40.67-.32,60.98-.2,6.36-2.73,12.65-4.41,18.84-.2.73.36,1.44,1.12,1.44h70.94c.64,0,1.15-.52,1.15-1.15Zm-79.49,1.96c0-.2,0-.39,0-.59h-2.5c0,.2,0,.39,0,.59h2.5Z"/>
  <path class="cls-5" d="m158.61,56.88c8.07-19.88,15.2-37.44,22.48-55.35,8.43-2.46,13.97-.99,17.32,9.25,5.48,16.74,12.83,32.87,19.38,49.2-10.52,2.76-17.6.53-18.32-11.35-10.98,1.6-24.45-5.79-27.76,11.7h-49.26V1.51h33.32v10.78h-21.04v12.18h18.8v11.95h-19c-.2,4.04-.38,7.51-.54,10.76,7.42,5.39,19.02-4.69,24.63,9.71Zm31.34-33.87l-1.42-3.32c-.79,1.11-1.59,2.22-2.38,3.33-1.51,4.2-3.01,8.4-4.75,13.24h12.35c-1.36-4.75-2.58-9-3.8-13.25Z"/>
  <path class="cls-3" d="m406.34,157.03c2.07,6.49,3.33,12.2,5.7,17.41,3.09,6.81,9.24,9.49,16.35,8.06,6.62-1.33,12.72-4.59,13.58-12.24.86-7.66-4.22-11.87-10.51-14.94-7.93-3.88-15.72-8.07-23.74-11.75-18.04-8.28-22.11-25.01-19.12-38.08,3.52-15.43,17.26-25.04,34.5-24.65,9.14.21,18.48.44,27.32,2.46,9.19,2.1,14.89,11.29,13.37,18.25-1.5,6.86-13.16,15.88-20.55,14.89-1.99-.27-3.83-4.1-5.11-6.62-2.12-4.18-2.57-10.19-5.82-12.57-4.88-3.57-11.82-5.31-16.63,1.36-3.85,5.33-1.49,15.63,4.91,19.28,7.31,4.16,15.2,7.32,22.9,10.76,16.88,7.52,29.17,19.67,22.65,42.79-4.09,14.5-16.32,22.41-29.49,24.45-14.37,2.23-30.42,4.95-43.25-6.84-6.18-5.67-11.34-11.3-7.93-21.13,3.82-11.02,11.71-12.03,20.87-10.86Zm-5.98,2.89c-4.28,4.67-10.12,8.48-9.61,11.02,1.11,5.53,4.29,11.94,8.69,15.27,11.23,8.52,37.49,7.25,49.24-1.2,18.37-13.21,18.77-36.62-1.37-47.6-6.01-3.28-12.54-5.61-18.58-8.85-5.39-2.89-10.92-5.87-15.48-9.85-6.44-5.61-6.63-13.09-3.61-20.74,2.85-7.22,8.66-9.48,15.85-9.3,8.06.2,13.89,3.8,16.89,11.43,1.14,2.91,1.99,5.94,4.09,12.29,4.91-5.36,11.28-9.41,10.86-12.57-.55-4.15-5.99-10.11-10.12-10.85-10.93-1.96-22.51-3.12-33.41-1.58-10.2,1.44-17.54,9.59-19.45,20.05-1.83,10-.35,20.24,8.71,26.73,5.98,4.28,13.11,6.94,19.67,10.42,6.06,3.22,12.6,5.86,17.93,10.03,8.28,6.48,9.41,16.32,4.05,24.37-4.8,7.2-17.39,10.95-25.25,8.46-12.2-3.87-15.23-14.24-19.11-27.56Z"/>
  <path class="cls-6" d="m590.23,156.38c2.43.01,4.66,1.44,5.68,3.65,3.47,7.49,5.7,14.11,10.11,18.59,2.98,3.02,10.49,2.46,15.85,2.03,6.64-.53,9.89-6.24,8.73-11.86-.95-4.61-4.46-9.89-8.41-12.43-8.75-5.64-18.6-9.55-27.8-14.55-13.93-7.56-20.64-22.99-15.9-37.91,4.38-13.78,20.02-25.23,32.1-23.33,9.69,1.53,19.77.73,29.39,2.54,9.38,1.76,14.2,11.25,12.22,20.78-1.08,5.2-13.86,14.11-19.39,12.54-2.08-.59-3.97-4.47-4.58-7.16-1.8-7.91-4.31-15.2-14.12-14.19-3.51.36-8.1,3.19-9.63,6.2-1.49,2.93-1.15,8.95.96,11.11,4.47,4.59,10.46,7.83,16.11,11.13,5.62,3.28,11.41,6.42,17.44,8.81,25.02,9.91,21.62,45.95,2.35,57.31-15.02,8.85-45.01,9.83-56.33,1.23-8.37-6.37-13.39-15.7-10.39-23.28,3.27-8.23,9.29-11.22,15.58-11.19Zm44.1-51.67c2.91,3.41,8.34,3.45,11.03-.13,1.38-1.83,1.86-4.34.22-7.8-2.19-4.64-9.34-8.38-14.9-9.62-7.31-1.63-15.27-.59-22.94-.34-10.07.33-21.22,6.89-24.67,23.83-1.51,7.41,3.84,19.79,12.25,24.71,10.09,5.91,20.92,10.59,30.93,16.62,10.8,6.51,13.61,20.9,6.53,29.3-7.51,8.91-23.46,10.03-31.41,1.22-4.36-4.83-7.24-11-11.36-18.03-.68-1.17-2.2-1.54-3.34-.82-2.15,1.35-4.77,2.96-5.29,5.09-.93,3.8-.19,9.54,2.25,12.38,13.86,16.18,45.87,14.72,61.56-2.48,6.63-7.27,10.78-22.84,2.01-31.33-7.03-6.8-16.3-11.29-24.64-16.71-6.78-4.41-15.33-7.38-19.94-13.41-3.69-4.82-5.26-14.34-3.03-19.85,2.98-7.37,12.09-12.2,20.01-7.39,5.6,3.41,9.85,9.04,14.73,14.75Z"/>
  <path class="cls-8" d="m87.07,164.24c.66-1.14,2.29-1.25,3.07-.18,7.54,10.28,6.73,18.01-.83,23.98-19.7,15.55-63.38,12.59-77.92-14.8-13.78-25.95-13.39-51.82,4.65-75.41,5.28-6.91,14.66-13.29,23.02-14.67,13.93-2.3,28.71-1.54,42.85.24,8.29,1.04,14.69,7.84,14.2,17.68-.38,7.5-9.86,15.38-19.06,15.37-2.34,0-6.62-3.72-6.66-5.79-.15-7.86-2.49-14.02-10.52-15.54-8.11-1.54-16.03,1.62-19.37,8.97-9.82,21.58-10.73,44.26.32,65.29,6.99,13.31,26.56,14.19,40.91,2.64,2.2-1.77,3.54-4.61,5.37-7.77Zm2.32,11.32h0c-.67-.62-1.7-.64-2.4-.06-1.05.86-2.09,1.73-3.2,2.51-15.66,10.97-43.19,10.41-50.84-10.99-7.73-21.62-7.1-43.21,1.45-64.3,3.56-8.79,11.81-13.48,21.07-13.64,12.61-.22,16.86,3.97,20.69,16.73.39,1.3,1.19,2.48,2.64,4.97.66,1.13,2.27,1.24,3.05.19,3.83-5.15,8.38-9.76,7.42-12.21-1.88-4.81-7.84-8.79-12.97-11.32-3.83-1.9-9.06-.98-13.67-1.31-12.09-.88-23.92-.22-34.18,7.25-16.48,12-20.96,29.4-20.33,48.4,1.42,42.91,40.85,61.26,73.79,43.84,3.02-1.6,5.21-4.76,7.62-7.51.65-.75.59-1.88-.14-2.55Z"/>
  <path class="cls-4" d="m258.16,1.12h13.55v58.74c-9.57,2.86-15.62.15-20.03-8.94-3.9-8.04-9.71-15.15-16.96-22.13v31.4h-13.38V1.81c8.72-3.24,14.33-.36,18.69,7.51,5.03,9.06,11,17.6,18.14,28.84V1.12Z"/>
  <path class="cls-10" d="m60.04,31.1c.03,17.64-13.66,31.92-30.38,31.66C14.15,62.53-.02,47.22,0,30.7.02,13.45,12.51.74,29.49.72c19.59-.03,30.51,10.83,30.55,30.38Zm-13.88-.26c.04-10.01-7.45-18.21-16.44-17.99-6.99.17-15.48,9.77-15.69,17.72-.22,8.58,7.9,17.95,15.68,18.08,10.1.17,16.4-6.66,16.45-17.81Z"/>
  <path class="cls-1" d="m327.3.73c18.22-.16,30.46,11.61,30.8,29.36.37,19.31-14.24,31.45-29.91,32.49-14.98,1-29.95-14.22-30.04-29.13-.12-20.84,10.32-32.55,29.15-32.72Zm16.62,30.13c.08-9.14-7.62-17.79-15.91-17.87-8.3-.08-15.73,7.99-15.95,17.31-.24,10.32,6.3,18.42,14.91,18.46,9.1.04,16.86-8.15,16.95-17.89Z"/>
  <path class="cls-7" d="m365.18,60.27V1.31c15.76-1.61,31.17-1.82,41.5,11.77,7.9,10.4,8.15,23.1.82,34.1-10.03,15.05-25.85,14.5-42.32,13.1Zm13.22-12.01c12.31-.27,17.52-5.13,17.68-15.58.24-15.53-1.78-17.68-17.68-18.65v34.23Z"/>
  <path class="cls-7" d="m115.7,56.55c-19.25,8.35-35.8,5.96-44.91-6.1-9.33-12.35-9.2-28.22.58-39.98,8.27-9.94,27.18-14.21,43.49-5.67-3.01,9.97-3.01,9.81-13.53,10.01-7.02.13-14.43-1.76-19.61,6.09-4.97,7.55-4.1,14.37.78,20.83,4.74,6.27,12.33,9.5,19.26,6.57,9.38-3.96,11.48,1.15,13.94,8.25Z"/>
  <path class="cls-7" d="m512.4,3.22c-3,8.58-4.91,14.83-14.31,9.92-2.17-1.13-6.37,1.61-9.63,2.56,2.06,2.81,3.64,6.26,6.3,8.29,4.32,3.31,9.84,5.11,13.98,8.59,7.45,6.28,7.48,14.27.98,21.52-9.96,11.12-22.86,11.41-40.27.46,1.73-3.69,3.5-7.48,5.18-11.07,5.69,1.87,10.98,4.18,16.5,5.13,1.99.34,5.83-2.17,6.46-4.14.54-1.68-1.79-5.14-3.75-6.59-3.87-2.88-8.67-4.52-12.54-7.4-5.99-4.44-9.35-10.32-6.22-18.02,3.07-7.56,8.09-12.69,17.05-11.75,6.38.67,12.74,1.55,20.28,2.47Z"/>
  <path class="cls-10" d="m561.81,3.09c-3.59,9.38-6.27,13.67-14.3,10.08-3.05-1.37-7.59.58-11.45,1.02-.23,1.21-.46,2.41-.7,3.62,4.79,2.98,9.44,6.22,14.4,8.89,12.7,6.83,15.76,13.19,11.24,24.3-3.22,7.94-16.46,14.06-25.8,11.31-5.52-1.63-10.7-4.44-17.11-7.18,2.24-4.55,4.02-8.17,5.47-11.09,6.43,1.8,11.84,3.87,17.43,4.59,2.13.28,4.66-2.54,7-3.95-1.63-2.09-2.94-4.59-4.95-6.19-5.7-4.53-13.08-7.66-17.24-13.24-6.61-8.87-.69-22.61,10.18-23.94,8.04-.99,16.45,1.02,25.82,1.79Z"/>
  <path class="cls-5" d="m606.11,4.35c-1.02,2.58-2.04,5.16-3.28,8.32h-20.04v11.79h18.81v11.93h-19c-.21,4.02-.38,7.49-.61,11.9h21.74c.21,4.31.38,7.76.58,11.85h-33.62V1.11h35.42c0,1.08,0,2.16,0,3.24Z"/>
  <path class="cls-7" d="m606.11,4.35c0-1.08,0-2.16,0-3.24,15.86-4.87,20.91,7.16,27.34,18.18,8.28-7.7,10.35-24.62,28.07-17.34-10.03,17.94-28.46,33.51-20.35,58.41h-15.75c5.85-22.75-5.06-40.02-19.31-56.01Z"/>
  <path class="cls-9" d="m468.34,2.19c-6.1,9.31-11.06,19.02-18.02,26.99-8.38,9.6-1.32,20.54-5.37,31.17-2.78.13-6.24.28-11.98.54,7.68-24.84-8.95-40.86-20.57-58.71,17.61-6.94,20.93,7.67,27.87,17.54,7.52-9.4,10.15-25.18,28.07-17.53Z"/>
  <path class="cls-9" d="m189.95,23.01c-1.27,0-2.53,0-3.8,0,.79-1.11,1.59-2.22,2.38-3.33.47,1.11.95,2.21,1.42,3.32Z"/>
</svg>