<?xml version="1.0" encoding="UTF-8"?>
<svg id="Layer_1" data-name="Layer 1" xmlns="http://www.w3.org/2000/svg" viewBox="0 0 931.93 564.74">
  <defs>
    <style>
      .cls-1 {
        fill: #4b6dbf;
      }

      .cls-2 {
        fill: #4b6ebf;
      }

      .cls-3 {
        fill: #4c6ebf;
      }
    </style>
  </defs>
  <path class="cls-1" d="m822.58,265.29c-40.13,14.98-77.67,38.86-122.3,32.44-7.16-1.03-15.53-.91-21.08-4.66-20.74-14.02-40.39-7.71-61.08-.3-19.95,7.15-42.36,20.6-60.58,16.72-38.62-8.24-76.51,4.14-114.02-2.97-22.51-4.27-44.73-17.5-66.55-16.37-36.28,1.88-71.92,13.86-108.24,18.03-18.88,2.16-40.33.85-57.6-6.25-28.51-11.72-56.47-11.5-84.51-4.98-44.96,10.45-87.96,13.24-126.63-20.62,6.12,1.13,12.34,1.85,18.33,3.47,41.66,11.28,79.61-1.47,117.38-17.2,27.43-11.42,56.65-17.94,81.98,2.03,33.26,26.22,64.67,16.89,97.89,2.12,29.23-12.99,59.76-22.05,92.27-17.87,7.97,1.02,17.88,4.44,22.6,10.26,21.56,26.53,33.13,31.23,65.96,21.93,9.82-2.78,19.22-7.09,29.07-9.75,19.17-5.19,37.94-17.87,58.47-1.72,3.4,2.67,12.71-.82,18.71-3.03,36.38-13.38,72.15-14.61,106.38,5.77,21.52,12.81,42.73,2.25,63.95.63,16.62-1.27,33.06-5.02,49.58-7.66Z"/>
  <path class="cls-2" d="m849.67,111.05c-34.87,9.96-69.57,20.65-104.75,29.34-8.46,2.09-20.5.4-27.54-4.44-20.28-13.93-39.01-5.96-58.77-.41-24.64,6.92-49.48,13.24-74.48,18.67-6.8,1.48-17.21,1.62-21.35-2.39-28.29-27.34-60.19-13.94-90.87-9.07-25.33,4.02-48.91,4.21-73.52-6.15-13.2-5.56-30.46-4.59-45.29-2.42-20.26,2.96-39.81,10.43-59.9,14.92-16.32,3.64-33.51,13.6-47.95-6.25-2.49-3.42-14.23-1.6-21.18.03-19.94,4.69-39.36,11.95-59.46,15.42-14.56,2.51-30.49,3.29-44.73.08-30.05-6.77-59.39-16.67-92.83-26.39,33.79-14.72,65.75-13.76,96.1-6.15,25.81,6.47,48.09,6.99,71.54-6.52,20.78-11.97,43.01-10.96,65.64-2.03,8.53,3.36,19.49,3.12,28.79,1.43,19.48-3.54,38.41-11.77,57.91-13.18,22.1-1.59,46.73-3.06,66.37,4.96,24.22,9.89,45.38,7.99,68.04,1.19,33.15-9.95,63.76-5.51,96.86,5.71,20.33,6.89,46.55-2.19,69.86-5.84,31.95-5,62.29-11.36,94.85,4.01,15.09,7.12,37.4-.83,56.41-2.32,16.71-1.31,33.39-3.13,50.08-4.72.06.84.13,1.69.19,2.53Z"/>
  <path class="cls-2" d="m760.92,400.69c-32.26,8.59-64.51,17.26-96.83,25.62-2.42.63-5.66-.36-8.07-1.53-33.2-16.13-64.98-6.66-98.27,1.91-25.97,6.68-54.2,17.03-79.51-10.12-6.52-6.99-31.24-2.94-44.24,3.17-36.45,17.13-71.89,19.13-110.65,8.68-23.81-6.43-49.7-5.16-76.7-11.52,14.18-4.01,28.26-10.96,42.55-11.4,24.94-.75,50.13,4.8,74.95,3.27,16.07-.99,33.01-7.52,47.17-15.7,28.6-16.51,56.9-14.71,83.92-.51,21.25,11.17,40.62,13.27,62.31,3.7,28.95-12.77,59.19-15.47,87.22.24,29.3,16.43,57.87,2.29,86.7,2.52,9.34.07,18.7-2.43,28.06-3.76.47,1.81.93,3.62,1.4,5.43Z"/>
  <path class="cls-3" d="m486.09,20c-43.08,6.24-81.41,38.76-130.93,12.56-15.27-8.08-39.89,2.31-60.27,2.79-11.93.28-26.62,1.64-35.36-4.36-23.01-15.78-45.59-12.69-69.39-5.73-4.67,1.37-9.25,3.02-16.08,5.26C190.5,7.94,224.46-7.69,245.04,3.96c29.76,16.85,57.05,10.09,85.15,1.63,18.62-5.61,34.09-3.8,49.99,7.48,6.62,4.7,16.58,7.17,24.8,6.71,26.8-1.48,53.5-4.78,80.24-7.39.29,2.54.58,5.07.87,7.61Z"/>
  <path class="cls-3" d="m751.45,542.89c-21.65,8.79-42.83,22.64-69.91,6.04-8.76-5.37-26.04-5.66-34.89-.5-33.2,19.34-64.94,21.98-100.07,5.25-13.16-6.27-29.85-5.13-48.45-7.89,12.88-16.22,29.1-19.1,46.33-19.1,4.17,0,8.42,2.26,12.51,3.82,31.34,11.93,61.05,7.59,91.1-6.18,19.49-8.93,38.54-4.24,57.83,6.54,13.35,7.45,30.39,8.29,45.55,12.03Z"/>
  <path class="cls-2" d="m91.25,502.97c22.23-11.47,41.26-15.99,63.08-8.6,22.7,7.7,46.14,14.38,69.66.96,2.66-1.52,7.12.12,13.6.43-19.78,23.69-44.25,29.01-69.93,25.34-24.73-3.54-48.84-11.39-76.41-18.13Z"/>
  <path class="cls-1" d="m931.93,343.84c-30,17.82-97.85,16.51-134.32-7.88,22.57-.84,45.24-3.35,67.68-2.03,22.33,1.31,44.44,6.46,66.64,9.92Z"/>
  <path class="cls-3" d="m763.72,17.19c-46.17,15.68-88.79,23.73-129.81-.42,13.7-16.99,22.87-17.62,41.36-5.32,7.19,4.78,18.04,5.12,27.3,5.5,19.17.78,38.4.24,61.15.24Z"/>
</svg>